<svg width="128" height="128" viewBox="0 0 128 128" xmlns="http://www.w3.org/2000/svg">
  <!-- 背景圆形 -->
  <circle cx="64" cy="64" r="60" fill="#1DA1F2" stroke="#1991db" stroke-width="2"/>
  
  <!-- 幽灵主体 -->
  <path d="M64 20 C45 20, 30 35, 30 55 C30 75, 45 90, 64 90 C83 90, 98 75, 98 55 C98 35, 83 20, 64 20 Z" fill="white"/>
  
  <!-- 幽灵底部波浪 -->
  <path d="M30 55 C35 60, 40 55, 45 60 C50 55, 55 60, 60 55 C65 60, 70 55, 75 60 C80 55, 85 60, 90 55 C95 60, 98 55, 98 55 L98 70 C98 75, 95 80, 90 80 C85 80, 80 75, 75 80 C70 75, 65 80, 60 75 C55 80, 50 75, 45 80 C40 75, 35 80, 30 75 Z" fill="white"/>
  
  <!-- 左眼 -->
  <circle cx="50" cy="45" r="6" fill="#1DA1F2"/>
  
  <!-- 右眼 -->
  <circle cx="78" cy="45" r="6" fill="#1DA1F2"/>
  
  <!-- 嘴巴 -->
  <path d="M55 65 Q64 75, 73 65" stroke="#1DA1F2" stroke-width="3" fill="none" stroke-linecap="round"/>
  
  <!-- Twitter小鸟装饰 -->
  <g transform="translate(85, 25) scale(0.8)">
    <path d="M23.643 4.937c-.815.369-1.5.38-2.23.016.57-.345.9-.901.9-1.56 0-.244-.03-.48-.08-.71.285.345.57.719.8 1.114.23.395.38.84.38 1.316 0 .476-.19.912-.57 1.316-.38.404-.9.719-1.56.944-.66.225-1.38.337-2.16.337-.84 0-1.68-.19-2.52-.57-.84-.38-1.56-.9-2.16-1.56-.6-.66-1.08-1.44-1.44-2.34-.36-.9-.54-1.86-.54-2.88 0-1.02.18-1.98.54-2.88.36-.9.84-1.68 1.44-2.34.6-.66 1.32-1.18 2.16-1.56.84-.38 1.68-.57 2.52-.57.78 0 1.5.112 2.16.337.66.225 1.18.54 1.56.944.38.404.57.84.57 1.316 0 .476-.15.921-.38 1.316-.23.395-.515.769-.8 1.114.73-.364 1.415-.353 2.23-.016.815.337 1.5.9 2.055 1.689.555.789.9 1.68 1.035 2.671.135.991.135 2.025 0 3.102-.135 1.077-.405 2.106-.81 3.087-.405.981-.945 1.89-1.62 2.727-.675.837-1.485 1.575-2.43 2.214-.945.639-2.025 1.17-3.24 1.593-1.215.423-2.565.635-4.05.635-1.485 0-2.835-.212-4.05-.635-1.215-.423-2.295-.954-3.24-1.593-.945-.639-1.755-1.377-2.43-2.214-.675-.837-1.215-1.746-1.62-2.727-.405-.981-.675-2.01-.81-3.087-.135-1.077-.135-2.111 0-3.102.135-.991.48-1.882 1.035-2.671.555-.789 1.24-1.352 2.055-1.689z" fill="#1DA1F2"/>
  </g>
  
  <!-- 装饰性星星 -->
  <g transform="translate(25, 25)">
    <path d="M12 2l3.09 6.26L22 9.27l-5 4.87 1.18 6.88L12 17.77l-6.18 3.25L7 14.14 2 9.27l6.91-1.01L12 2z" fill="#FFD700" opacity="0.8"/>
  </g>
</svg>
